<svg version="1.1" id="Layer_1" xmlns="http://www.w3.org/2000/svg" xmlns:xlink="http://www.w3.org/1999/xlink" x="0px" y="0px"
	 width="100%" viewBox="0 0 300 168" enable-background="new 0 0 300 168" xml:space="preserve">
<path fill="#F66C79" opacity="1.000000" stroke="none" 
	d="
M173.000000,1.000000 
	C215.549683,1.000000 258.099365,1.000000 301.000000,1.000000 
	C301.000000,11.351584 301.000000,21.707134 300.597351,32.535568 
	C296.950653,32.774113 295.431488,34.331917 294.953705,37.514023 
	C294.765991,38.763977 293.839935,40.184849 292.821716,40.977627 
	C289.176178,43.816044 288.925629,46.746387 292.023376,50.437645 
	C289.860504,54.632050 287.766846,58.487324 285.551880,62.271599 
	C283.435638,65.887230 281.193115,69.428963 278.655273,73.095924 
	C277.492798,73.750511 276.726318,74.702560 275.861237,74.802666 
	C273.015411,75.131981 269.906860,75.842201 267.360718,75.004066 
	C266.065277,74.577621 265.449829,71.204765 265.086334,69.068642 
	C264.700897,66.803337 265.483643,64.265846 264.814270,62.144436 
	C264.230255,60.293591 262.336121,58.856152 261.020813,57.236061 
	C259.731445,58.737247 258.288696,60.139168 257.223297,61.785290 
	C256.754303,62.509930 256.998810,63.731956 257.012146,64.726906 
	C257.061401,68.386818 257.289856,71.779984 253.348831,74.271469 
	C250.616852,75.998611 251.855515,82.489609 254.637650,82.452385 
	C260.037323,82.380135 259.626862,85.396454 259.183289,88.995964 
	C259.083649,89.804291 259.711761,90.702309 260.096680,91.827507 
	C261.014191,91.302872 261.529327,90.875595 262.119446,90.699364 
	C263.246765,90.362686 264.474976,89.855232 265.543579,90.053444 
	C266.048584,90.147118 266.815277,91.992523 266.522003,92.539062 
	C265.986267,93.537392 264.846741,94.352303 263.780304,94.887413 
	C262.618927,95.470161 261.254272,95.647827 259.674622,95.799568 
	C258.584442,94.033180 257.147797,92.476387 257.130707,90.904190 
	C257.074829,85.754951 254.767639,85.449783 250.711563,87.032120 
	C249.340347,87.567047 247.559937,87.052994 245.969910,86.681770 
	C245.977158,85.896439 245.981018,85.447670 246.261398,84.833221 
	C247.454056,83.796974 248.370163,82.926414 250.396774,81.000603 
	C246.152115,81.000603 243.576065,81.000603 240.702423,80.789597 
	C232.600220,78.052917 224.795593,75.527245 216.826202,72.663254 
	C216.137970,71.952118 215.666107,71.423546 215.083115,71.230377 
	C208.578964,69.075333 202.021057,67.073509 195.579742,64.747597 
	C194.592255,64.391014 193.373367,62.474648 193.541794,61.501190 
	C194.244324,57.440670 191.862091,57.255009 188.932083,56.919506 
	C186.900986,56.686939 183.508789,56.077625 183.217789,54.977310 
	C181.744263,49.405632 176.253250,48.416752 173.000641,44.564262 
	C173.534256,40.658142 174.068344,37.184547 174.853104,32.080746 
	C168.279877,27.544998 160.639328,22.272766 152.588501,17.000896 
	C149.773285,16.172215 147.381439,15.301949 144.957733,14.532008 
	C143.796951,14.163261 142.575775,13.984518 141.381958,13.719722 
	C141.091110,15.065337 140.543442,16.412577 140.551941,17.756294 
	C140.599518,25.277651 140.826279,32.797997 140.854080,40.319187 
	C140.857162,41.151638 140.197601,42.358116 139.487152,42.763737 
	C132.903992,46.522373 132.062439,53.767860 128.900558,59.623501 
	C127.782112,61.694820 125.663589,63.226124 123.787033,64.730637 
	C120.266312,58.794102 117.625412,58.486130 112.829048,63.137924 
	C112.138481,63.807674 111.307472,64.449020 110.420731,64.781776 
	C102.928291,67.593369 102.919861,67.570892 105.043587,74.439980 
	C100.520988,75.512650 96.219376,76.890907 91.731667,73.724709 
	C88.443687,71.404953 84.591545,69.884842 80.701263,67.893135 
	C80.223846,66.940567 79.607704,65.875854 79.913177,65.300285 
	C83.794037,57.988125 87.701889,50.685200 91.849335,43.522636 
	C93.138664,41.296005 96.003746,39.751026 96.698654,37.455418 
	C98.580544,31.238653 102.514427,27.481699 108.519653,25.848322 
	C112.589828,24.741262 113.417252,23.177113 111.518593,19.129921 
	C110.302536,16.537750 109.550941,11.546950 110.937843,10.349561 
	C114.247826,7.491868 113.956413,4.406008 114.000000,1.000000 
	C118.689255,1.000000 123.378510,1.000000 128.640259,1.318998 
	C139.114716,10.719409 148.700241,16.179384 163.400391,8.937414 
	C164.872925,8.211973 166.446182,7.247941 167.995071,7.205169 
	C172.315964,7.085853 173.331848,4.676911 173.000000,1.000000 
z"/>
<path fill="#F67B85" opacity="1.000000" stroke="none" 
	d="
M113.531342,1.000000 
	C113.956413,4.406008 114.247826,7.491868 110.937843,10.349561 
	C109.550941,11.546950 110.302536,16.537750 111.518593,19.129921 
	C113.417252,23.177113 112.589828,24.741262 108.519653,25.848322 
	C102.514427,27.481699 98.580544,31.238653 96.698654,37.455418 
	C96.003746,39.751026 93.138664,41.296005 91.849335,43.522636 
	C87.701889,50.685200 83.794037,57.988125 79.913177,65.300285 
	C79.607704,65.875854 80.223846,66.940567 80.730606,68.255951 
	C85.520653,75.319122 92.022041,79.273209 99.510094,80.712730 
	C104.163322,81.607285 105.539200,83.303024 104.818672,87.540710 
	C104.540810,89.174942 104.184753,90.806702 104.063217,92.454262 
	C103.859955,95.209656 104.987839,96.955704 107.926346,97.348312 
	C106.128105,100.719757 104.582993,103.862595 102.629204,106.726639 
	C100.411049,109.978203 99.389709,113.236351 100.687538,116.909538 
	C98.702927,116.635742 96.883507,115.947433 95.378799,116.372696 
	C88.646988,118.275276 83.725723,122.438278 80.578690,128.999939 
	C76.270317,129.458832 71.021408,128.498215 68.764236,130.660538 
	C63.497883,135.705612 57.649963,134.803513 51.641754,135.039230 
	C48.498558,135.162537 46.337757,134.489670 45.161316,131.142441 
	C44.526218,129.335480 42.742157,127.932335 42.075729,127.097610 
	C40.150948,129.377655 38.479881,130.923950 37.385166,132.805588 
	C36.650303,134.068665 36.412762,135.833054 36.535484,137.325211 
	C36.665897,138.910919 37.484261,140.440063 37.714668,141.815109 
	C32.769962,138.043716 31.316473,134.082382 33.836403,130.253265 
	C37.717594,124.355713 41.832653,118.598938 46.097374,112.971031 
	C49.562996,108.397629 48.754047,106.036736 43.036175,104.982368 
	C38.010845,104.055702 33.007393,103.010429 27.575420,101.978859 
	C18.437706,100.960129 9.718853,99.980064 1.000000,99.000000 
	C1.000000,80.645775 1.000000,62.291546 1.359183,43.383186 
	C7.136451,41.556152 12.515910,39.554310 17.986088,39.264446 
	C21.684719,39.068451 25.584686,41.086418 29.262781,42.465633 
	C34.578300,44.458851 36.007145,43.668949 37.144245,38.255569 
	C37.885471,34.726826 39.516163,31.379078 40.184235,27.843641 
	C40.456398,26.403374 39.681393,23.750418 38.619171,23.240740 
	C32.610283,20.357534 31.505468,17.153843 34.282314,10.948296 
	C35.669769,7.847685 36.123783,4.329379 37.000000,1.000000 
	C62.354229,1.000000 87.708458,1.000000 113.531342,1.000000 
z"/>
<path fill="#F56A77" opacity="1.000000" stroke="none" 
	d="
M259.978241,96.002106 
	C261.254272,95.647827 262.618927,95.470161 263.780304,94.887413 
	C264.846741,94.352303 265.986267,93.537392 266.522003,92.539062 
	C266.815277,91.992523 266.048584,90.147118 265.543579,90.053444 
	C264.474976,89.855232 263.246765,90.362686 262.119446,90.699364 
	C261.529327,90.875595 261.014191,91.302872 260.096680,91.827507 
	C259.711761,90.702309 259.083649,89.804291 259.183289,88.995964 
	C259.626862,85.396454 260.037323,82.380135 254.637650,82.452385 
	C251.855515,82.489609 250.616852,75.998611 253.348831,74.271469 
	C257.289856,71.779984 257.061401,68.386818 257.012146,64.726906 
	C256.998810,63.731956 256.754303,62.509930 257.223297,61.785290 
	C258.288696,60.139168 259.731445,58.737247 261.020813,57.236061 
	C262.336121,58.856152 264.230255,60.293591 264.814270,62.144436 
	C265.483643,64.265846 264.700897,66.803337 265.086334,69.068642 
	C265.449829,71.204765 266.065277,74.577621 267.360718,75.004066 
	C269.906860,75.842201 273.015411,75.131981 275.861237,74.802666 
	C276.726318,74.702560 277.492798,73.750511 278.623291,73.487244 
	C279.297180,76.852837 279.652222,79.919853 279.808563,83.262787 
	C277.631897,84.936562 275.653931,86.334427 273.675964,87.732285 
	C277.458313,88.090630 281.504639,89.174942 282.366699,84.024139 
	C288.361053,87.399719 294.093475,90.366631 301.000000,89.000000 
	C301.000000,107.020897 301.000000,125.041786 300.603088,143.559357 
	C299.241455,144.264633 298.271545,144.451904 297.312836,144.685196 
	C289.691681,146.539597 289.767792,146.523361 287.878296,138.989227 
	C287.456818,137.308731 286.300568,135.812531 285.482605,134.231476 
	C284.815063,134.212219 284.147552,134.192978 283.480011,134.173737 
	C281.982117,137.783554 280.484222,141.393387 278.664276,144.869995 
	C273.457764,139.130432 270.272156,139.431549 264.533661,145.998581 
	C258.101227,145.651138 252.099396,145.555939 246.187592,144.777390 
	C244.713760,144.583298 242.771194,142.373245 242.369293,140.759689 
	C241.495743,137.252686 241.476608,133.532898 241.042877,129.255981 
	C241.810318,129.200165 243.943985,129.550156 245.560440,128.794205 
	C247.409164,127.929642 249.914810,126.251953 250.162262,124.627129 
	C250.737915,120.847221 250.128937,116.886902 250.158722,112.748856 
	C251.058640,111.039459 251.514587,108.612930 252.592041,108.295425 
	C256.562073,107.125504 257.178375,104.421196 257.309021,100.878311 
	C258.401855,99.167114 259.190063,97.584610 259.978241,96.002106 
z"/>
<path fill="#F6707D" opacity="1.000000" stroke="none" 
	d="
M80.997490,128.999390 
	C83.725723,122.438278 88.646988,118.275276 95.378799,116.372696 
	C96.883507,115.947433 98.702927,116.635742 100.955688,117.102684 
	C102.689583,119.261551 103.845245,121.129097 105.000732,123.406807 
	C104.176453,126.213409 103.607132,128.740860 102.460106,130.971237 
	C101.187820,133.445190 99.229866,135.559082 97.863113,137.994034 
	C96.539719,140.351761 96.486946,142.528885 99.937210,143.331848 
	C100.458832,145.617447 101.040680,147.571182 101.794708,150.103043 
	C98.327560,153.347092 94.415466,157.360901 90.134628,160.932785 
	C83.118301,166.787170 74.041275,166.080826 67.328148,159.985336 
	C64.831558,157.718460 61.501930,156.369034 58.138531,154.353348 
	C56.499489,160.154068 55.249744,164.577042 54.000000,169.000000 
	C41.979103,169.000000 29.958210,169.000000 17.355032,168.909912 
	C16.480238,168.699387 16.222654,168.759445 16.000000,169.000000 
	C15.555555,169.000000 15.111111,169.000000 14.242253,168.655472 
	C9.545226,166.207306 5.272611,164.103653 0.999998,162.000000 
	C1.000000,156.311966 1.000000,150.623917 1.465171,144.468155 
	C9.292769,144.590561 16.655199,145.180679 24.290983,145.792725 
	C25.038401,144.696487 26.454363,143.201065 27.135698,141.423965 
	C27.621477,140.156937 27.686304,138.091293 26.958229,137.108856 
	C24.140985,133.307388 24.555603,131.237427 28.667292,128.882843 
	C30.572414,127.791855 32.290817,126.168098 33.701939,124.461769 
	C37.258369,120.161285 40.611309,115.691292 43.996315,111.251503 
	C44.556557,110.516701 45.431248,109.223465 45.175213,108.830780 
	C44.643646,108.015503 43.507263,107.319847 42.517147,107.140656 
	C40.904461,106.848785 39.018681,107.474770 37.588161,106.886536 
	C34.281868,105.526993 31.179407,103.671738 27.994278,102.017532 
	C33.007393,103.010429 38.010845,104.055702 43.036175,104.982368 
	C48.754047,106.036736 49.562996,108.397629 46.097374,112.971031 
	C41.832653,118.598938 37.717594,124.355713 33.836403,130.253265 
	C31.316473,134.082382 32.769962,138.043716 38.020142,141.974396 
	C42.594185,145.181763 46.362900,148.443024 50.642498,150.761093 
	C52.907070,151.987717 57.268616,152.877640 58.586575,151.656479 
	C62.589378,147.947647 65.736572,150.034470 69.447884,151.439346 
	C72.448982,152.575378 75.655617,153.632294 78.811592,153.765717 
	C82.011398,153.900970 83.661125,152.090134 82.054573,148.477615 
	C81.063904,146.249969 80.175537,143.762970 80.131218,141.375870 
	C80.054756,137.257156 80.671570,133.125580 80.997490,128.999390 
M93.576942,146.261490 
	C89.589233,145.590347 87.632278,147.529480 87.756104,152.326981 
	C90.992920,151.777115 93.916771,151.138565 93.576942,146.261490 
z"/>
<path fill="#F66C79" opacity="1.000000" stroke="none" 
	d="
M36.531342,1.000000 
	C36.123783,4.329379 35.669769,7.847685 34.282314,10.948296 
	C31.505468,17.153843 32.610283,20.357534 38.619171,23.240740 
	C39.681393,23.750418 40.456398,26.403374 40.184235,27.843641 
	C39.516163,31.379078 37.885471,34.726826 37.144245,38.255569 
	C36.007145,43.668949 34.578300,44.458851 29.262781,42.465633 
	C25.584686,41.086418 21.684719,39.068451 17.986088,39.264446 
	C12.515910,39.554310 7.136451,41.556152 1.359183,42.914528 
	C1.000000,29.078999 1.000000,15.157997 1.000000,1.000000 
	C12.686494,1.000000 24.374588,1.000000 36.531342,1.000000 
z"/>
<path fill="#F66C79" opacity="1.000000" stroke="none" 
	d="
M27.575420,101.978859 
	C31.179407,103.671738 34.281868,105.526993 37.588161,106.886536 
	C39.018681,107.474770 40.904461,106.848785 42.517147,107.140656 
	C43.507263,107.319847 44.643646,108.015503 45.175213,108.830780 
	C45.431248,109.223465 44.556557,110.516701 43.996315,111.251503 
	C40.611309,115.691292 37.258369,120.161285 33.701939,124.461769 
	C32.290817,126.168098 30.572414,127.791855 28.667292,128.882843 
	C24.555603,131.237427 24.140985,133.307388 26.958229,137.108856 
	C27.686304,138.091293 27.621477,140.156937 27.135698,141.423965 
	C26.454363,143.201065 25.038401,144.696487 24.290983,145.792725 
	C16.655199,145.180679 9.292769,144.590561 1.465171,144.000214 
	C1.000000,129.312439 1.000000,114.624878 1.000000,99.468658 
	C9.718853,99.980064 18.437706,100.960129 27.575420,101.978859 
z"/>
<path fill="#F6707D" opacity="1.000000" stroke="none" 
	d="
M264.997559,145.998169 
	C270.272156,139.431549 273.457764,139.130432 278.663879,145.329926 
	C278.996582,149.609451 279.007629,153.295807 279.106628,157.269501 
	C279.785828,158.041931 280.377106,158.527039 280.970215,159.419617 
	C280.035614,161.504837 279.418274,164.245743 278.097260,164.642242 
	C275.219330,165.506073 272.256866,166.939972 268.851990,164.210785 
	C266.363892,162.216476 262.291962,161.350891 259.046021,161.592728 
	C257.853363,161.681580 257.005280,166.395691 256.000000,169.000000 
	C235.312439,169.000000 214.624878,169.000000 193.225616,168.761261 
	C187.578033,166.020493 183.182358,161.996552 177.000534,162.621429 
	C176.396866,158.312149 179.525497,157.962112 182.425629,156.992233 
	C184.957443,157.354446 187.079300,157.653976 189.173615,158.086761 
	C196.292206,159.557831 203.610275,162.863434 210.453583,162.062561 
	C217.013672,161.294830 223.351639,160.175156 230.005127,160.914505 
	C233.803940,161.336639 238.151459,161.350037 239.640289,156.714828 
	C241.142014,152.039581 236.379532,151.249054 234.292908,148.820480 
	C242.365555,149.074860 250.142075,149.620682 257.927795,149.947708 
	C260.944763,150.074417 263.998688,149.734650 264.997559,145.998169 
z"/>
<path fill="#F35C6D" opacity="1.000000" stroke="none" 
	d="
M54.468658,169.000000 
	C55.249744,164.577042 56.499489,160.154068 58.138531,154.353348 
	C61.501930,156.369034 64.831558,157.718460 67.328148,159.985336 
	C74.041275,166.080826 83.118301,166.787170 90.134628,160.932785 
	C94.415466,157.360901 98.327560,153.347092 101.794708,150.103043 
	C101.040680,147.571182 100.458832,145.617447 100.215607,143.133575 
	C102.915939,137.047409 107.151482,135.029343 113.136993,136.371643 
	C113.463829,138.346222 114.379433,140.467239 113.682236,141.512497 
	C109.903183,147.178192 114.574287,149.244339 117.717155,152.069626 
	C119.505600,153.677353 121.197678,155.392288 122.942497,157.411285 
	C123.294365,158.847748 123.636879,159.931854 124.058258,161.364777 
	C125.091423,164.142395 126.045715,166.571198 127.000000,169.000000 
	C102.979103,169.000000 78.958214,169.000000 54.468658,169.000000 
z"/>
<path fill="#F35C6D" opacity="1.000000" stroke="none" 
	d="
M279.018646,156.982162 
	C279.007629,153.295807 278.996582,149.609451 278.985962,145.463150 
	C280.484222,141.393387 281.982117,137.783554 283.480011,134.173737 
	C284.147552,134.192978 284.815063,134.212219 285.482605,134.231476 
	C286.300568,135.812531 287.456818,137.308731 287.878296,138.989227 
	C289.767792,146.523361 289.691681,146.539597 297.312836,144.685196 
	C298.271545,144.451904 299.241455,144.264633 300.603088,144.028015 
	C301.000000,152.280899 301.000000,160.561798 301.000000,169.000000 
	C286.312744,169.000000 271.625031,169.000000 256.468658,169.000000 
	C257.005280,166.395691 257.853363,161.681580 259.046021,161.592728 
	C262.291962,161.350891 266.363892,162.216476 268.851990,164.210785 
	C272.256866,166.939972 275.219330,165.506073 278.097260,164.642242 
	C279.418274,164.245743 280.035614,161.504837 280.884827,159.131577 
	C280.204620,157.951431 279.611633,157.466797 279.018646,156.982162 
z"/>
<path fill="#F35C6D" opacity="1.000000" stroke="none" 
	d="
M280.007263,82.986870 
	C279.652222,79.919853 279.297180,76.852837 278.974121,73.394501 
	C281.193115,69.428963 283.435638,65.887230 285.551880,62.271599 
	C287.766846,58.487324 289.860504,54.632050 292.414734,50.419331 
	C293.869385,49.992661 294.916412,49.954475 296.121490,50.165840 
	C294.762085,54.826141 296.063995,57.215714 301.000000,57.000000 
	C301.000000,67.354225 301.000000,77.708458 301.000000,88.531342 
	C294.093475,90.366631 288.361053,87.399719 282.116394,83.899818 
	C281.002838,83.494934 280.505066,83.240906 280.007263,82.986870 
z"/>
<path fill="#F6707D" opacity="1.000000" stroke="none" 
	d="
M127.468658,169.000000 
	C126.045715,166.571198 125.091423,164.142395 124.471191,161.364136 
	C131.656845,164.200775 138.647964,162.836990 145.275604,160.776093 
	C149.784943,159.373886 153.783188,156.328079 158.397949,154.007950 
	C162.973816,152.513748 165.280746,154.323196 167.151596,158.080231 
	C168.141190,160.067505 170.390091,161.427704 171.989700,163.411407 
	C171.272644,165.501205 170.636322,167.250610 170.000000,169.000000 
	C155.979111,169.000000 141.958206,169.000000 127.468658,169.000000 
z"/>
<path fill="#F35C6D" opacity="1.000000" stroke="none" 
	d="
M172.531342,1.000000 
	C173.331848,4.676911 172.315964,7.085853 167.995071,7.205169 
	C166.446182,7.247941 164.872925,8.211973 163.400391,8.937414 
	C148.700241,16.179384 139.114716,10.719409 129.106384,1.318998 
	C143.354233,1.000000 157.708450,1.000000 172.531342,1.000000 
z"/>
<path fill="#F67B85" opacity="1.000000" stroke="none" 
	d="
M295.963470,49.916283 
	C294.916412,49.954475 293.869385,49.992661 292.430969,50.049164 
	C288.925629,46.746387 289.176178,43.816044 292.821716,40.977627 
	C293.839935,40.184849 294.765991,38.763977 294.953705,37.514023 
	C295.431488,34.331917 296.950653,32.774113 300.597351,33.004227 
	C301.000000,36.030594 301.000000,39.061188 300.649261,42.618793 
	C298.853485,45.402630 297.408478,47.659454 295.963470,49.916283 
z"/>
<path fill="#F35C6D" opacity="1.000000" stroke="none" 
	d="
M170.468628,169.000000 
	C170.636322,167.250610 171.272644,165.501205 172.397766,163.393951 
	C174.256714,163.029022 175.626831,163.021942 176.996948,163.014862 
	C183.182358,161.996552 187.578033,166.020493 192.756958,168.761261 
	C185.645752,169.000000 178.291504,169.000000 170.468628,169.000000 
z"/>
<path fill="#F66C79" opacity="1.000000" stroke="none" 
	d="
M296.121490,50.165833 
	C297.408478,47.659454 298.853485,45.402630 300.649261,43.072903 
	C301.000000,47.356899 301.000000,51.713799 301.000000,56.535347 
	C296.063995,57.215714 294.762085,54.826141 296.121490,50.165833 
z"/>
<path fill="#F35C6D" opacity="1.000000" stroke="none" 
	d="
M0.999998,162.497910 
	C5.272611,164.103653 9.545226,166.207306 13.908920,168.655472 
	C9.776849,169.000000 5.553698,169.000000 1.000000,169.000000 
	C1.000000,167.009384 1.000000,165.002609 0.999998,162.497910 
z"/>
<path fill="#F35C6D" opacity="1.000000" stroke="none" 
	d="
M16.250000,169.000000 
	C16.222654,168.759445 16.480238,168.699387 16.886375,168.909912 
	C17.000000,169.000000 16.500000,169.000000 16.250000,169.000000 
z"/>
<path fill="#F67B86" opacity="1.000000" stroke="none" 
	d="
M177.000534,162.621429 
	C175.626831,163.021942 174.256714,163.029022 172.478516,163.053558 
	C170.390091,161.427704 168.141190,160.067505 167.151596,158.080231 
	C165.280746,154.323196 162.973816,152.513748 158.319321,153.631897 
	C158.292130,149.759583 158.731567,146.254028 159.266754,141.984573 
	C159.628326,142.208145 158.994263,141.531357 158.269592,141.414001 
	C153.386230,140.623184 148.496078,139.821289 143.576797,139.349960 
	C142.595535,139.255951 140.990845,140.325424 140.509766,141.279861 
	C138.434464,145.397202 136.716309,145.470154 133.675278,141.892792 
	C132.265594,140.234497 128.805023,138.847290 126.927559,139.432663 
	C124.595001,140.159912 122.938690,143.056122 120.674622,144.983810 
	C119.985123,144.030487 119.214630,143.057220 119.326485,142.198944 
	C119.514435,140.756790 120.263519,139.387772 120.679367,138.253113 
	C118.000412,136.944351 116.007500,135.970749 114.086166,134.634598 
	C115.626839,130.932343 114.196541,128.656387 111.515717,126.726372 
	C109.934967,125.588348 108.500427,124.247253 107.116959,122.670517 
	C113.423927,114.285484 112.818726,105.753944 109.443398,96.997772 
	C110.217499,96.997269 110.547989,96.998024 110.878479,96.997589 
	C121.082397,96.984344 124.361824,92.631187 121.006775,83.164680 
	C118.632767,76.466232 116.332550,69.964088 124.001648,65.003967 
	C125.663589,63.226124 127.782112,61.694820 128.900558,59.623501 
	C132.062439,53.767860 132.903992,46.522373 139.487152,42.763737 
	C140.197601,42.358116 140.857162,41.151638 140.854080,40.319187 
	C140.826279,32.797997 140.599518,25.277651 140.551941,17.756294 
	C140.543442,16.412577 141.091110,15.065337 141.381958,13.719722 
	C142.575775,13.984518 143.796951,14.163261 144.957733,14.532008 
	C147.381439,15.301949 149.773285,16.172215 152.616821,17.359598 
	C153.974579,18.991468 154.655838,20.578732 155.852600,21.486141 
	C162.233704,26.324469 168.161575,31.258213 168.796112,40.224564 
	C168.915100,41.906075 171.535202,43.410591 173.001144,44.996780 
	C176.253250,48.416752 181.744263,49.405632 183.217789,54.977310 
	C183.508789,56.077625 186.900986,56.686939 188.932083,56.919506 
	C191.862091,57.255009 194.244324,57.440670 193.541794,61.501190 
	C193.373367,62.474648 194.592255,64.391014 195.579742,64.747597 
	C202.021057,67.073509 208.578964,69.075333 215.083115,71.230377 
	C215.666107,71.423546 216.137970,71.952118 216.387024,72.662811 
	C213.475357,72.791473 210.839935,72.445374 208.200363,72.410179 
	C205.362885,72.372330 202.714371,72.760254 203.346863,76.798744 
	C203.487946,77.699715 203.176529,78.747742 202.834518,79.636070 
	C200.228226,86.405525 197.183151,93.049263 197.925949,100.622894 
	C198.032547,101.709831 197.754166,103.033585 197.183487,103.956978 
	C191.665298,112.885727 196.996262,120.864128 199.433533,129.033569 
	C199.749496,130.092651 201.636368,130.926926 202.961685,131.396957 
	C207.605392,133.043900 212.321808,134.485886 216.674515,136.217361 
	C214.250717,136.630997 212.166290,136.881012 210.074509,137.022995 
	C207.366089,137.206833 207.436798,138.313293 208.902969,140.266495 
	C207.249420,139.919632 205.466812,139.606033 204.180923,138.634766 
	C198.896927,134.643707 195.072144,135.579071 192.680145,141.267242 
	C192.135834,142.561646 190.025055,143.209595 188.615372,144.124435 
	C187.164032,145.066315 184.882523,145.659439 184.382828,146.953110 
	C183.155212,150.131180 182.743149,153.624268 182.003052,156.990631 
	C179.525497,157.962112 176.396866,158.312149 177.000534,162.621429 
z"/>
<path fill="#F77D88" opacity="1.000000" stroke="none" 
	d="
M217.010605,136.005707 
	C212.321808,134.485886 207.605392,133.043900 202.961685,131.396957 
	C201.636368,130.926926 199.749496,130.092651 199.433533,129.033569 
	C196.996262,120.864128 191.665298,112.885727 197.183487,103.956978 
	C197.754166,103.033585 198.032547,101.709831 197.925949,100.622894 
	C197.183151,93.049263 200.228226,86.405525 202.834518,79.636070 
	C203.176529,78.747742 203.487946,77.699715 203.346863,76.798744 
	C202.714371,72.760254 205.362885,72.372330 208.200363,72.410179 
	C210.839935,72.445374 213.475357,72.791473 216.551788,73.001144 
	C224.795593,75.527245 232.600220,78.052917 240.808273,81.102432 
	C242.802750,82.750488 244.393814,83.874702 245.984863,84.998909 
	C245.981018,85.447670 245.977158,85.896439 245.773560,86.981659 
	C244.302658,91.574654 246.006195,93.767303 249.889099,93.901306 
	C254.685074,94.066818 256.360840,96.912376 257.004364,101.007004 
	C257.178375,104.421196 256.562073,107.125504 252.592041,108.295425 
	C251.514587,108.612930 251.058640,111.039459 249.764084,112.764008 
	C248.141006,114.357780 246.857483,115.570587 246.063721,117.046745 
	C245.319855,118.430138 245.578369,120.672028 244.553696,121.527405 
	C240.893082,124.583237 236.874405,127.210159 232.658386,130.086380 
	C231.549866,131.446060 230.774155,132.718735 229.588181,133.999496 
	C225.122147,134.673630 221.066376,135.339676 217.010605,136.005707 
z"/>
<path fill="#F6707D" opacity="1.000000" stroke="none" 
	d="
M123.787033,64.730637 
	C116.332550,69.964088 118.632767,76.466232 121.006775,83.164680 
	C124.361824,92.631187 121.082397,96.984344 110.878479,96.997589 
	C110.547989,96.998024 110.217499,96.997269 109.193207,96.996979 
	C108.332603,96.996773 108.165810,96.996674 107.999008,96.996582 
	C104.987839,96.955704 103.859955,95.209656 104.063217,92.454262 
	C104.184753,90.806702 104.540810,89.174942 104.818672,87.540710 
	C105.539200,83.303024 104.163322,81.607285 99.510094,80.712730 
	C92.022041,79.273209 85.520653,75.319122 81.020195,68.371140 
	C84.591545,69.884842 88.443687,71.404953 91.731667,73.724709 
	C96.219376,76.890907 100.520988,75.512650 105.043587,74.439980 
	C102.919861,67.570892 102.928291,67.593369 110.420731,64.781776 
	C111.307472,64.449020 112.138481,63.807674 112.829048,63.137924 
	C117.625412,58.486130 120.266312,58.794102 123.787033,64.730637 
z"/>
<path fill="#F6707D" opacity="1.000000" stroke="none" 
	d="
M173.000641,44.564262 
	C171.535202,43.410591 168.915100,41.906075 168.796112,40.224564 
	C168.161575,31.258213 162.233704,26.324469 155.852600,21.486141 
	C154.655838,20.578732 153.974579,18.991468 153.027100,17.359234 
	C160.639328,22.272766 168.279877,27.544998 174.853104,32.080746 
	C174.068344,37.184547 173.534256,40.658142 173.000641,44.564262 
z"/>
<path fill="#F67B85" opacity="1.000000" stroke="none" 
	d="
M257.309021,100.878311 
	C256.360840,96.912376 254.685074,94.066818 249.889099,93.901306 
	C246.006195,93.767303 244.302658,91.574654 245.770172,87.318237 
	C247.559937,87.052994 249.340347,87.567047 250.711563,87.032120 
	C254.767639,85.449783 257.074829,85.754951 257.130707,90.904190 
	C257.147797,92.476387 258.584442,94.033180 259.674622,95.799568 
	C259.190063,97.584610 258.401855,99.167114 257.309021,100.878311 
z"/>
<path fill="#F67B85" opacity="1.000000" stroke="none" 
	d="
M246.261398,84.833221 
	C244.393814,83.874702 242.802750,82.750488 241.105850,81.313446 
	C243.576065,81.000603 246.152115,81.000603 250.396774,81.000603 
	C248.370163,82.926414 247.454056,83.796974 246.261398,84.833221 
z"/>
<path fill="#F77D88" opacity="1.000000" stroke="none" 
	d="
M80.578690,128.999939 
	C80.671570,133.125580 80.054756,137.257156 80.131218,141.375870 
	C80.175537,143.762970 81.063904,146.249969 82.054573,148.477615 
	C83.661125,152.090134 82.011398,153.900970 78.811592,153.765717 
	C75.655617,153.632294 72.448982,152.575378 69.447884,151.439346 
	C65.736572,150.034470 62.589378,147.947647 58.586575,151.656479 
	C57.268616,152.877640 52.907070,151.987717 50.642498,150.761093 
	C46.362900,148.443024 42.594185,145.181763 38.307693,142.153168 
	C37.484261,140.440063 36.665897,138.910919 36.535484,137.325211 
	C36.412762,135.833054 36.650303,134.068665 37.385166,132.805588 
	C38.479881,130.923950 40.150948,129.377655 42.075729,127.097610 
	C42.742157,127.932335 44.526218,129.335480 45.161316,131.142441 
	C46.337757,134.489670 48.498558,135.162537 51.641754,135.039230 
	C57.649963,134.803513 63.497883,135.705612 68.764236,130.660538 
	C71.021408,128.498215 76.270317,129.458832 80.578690,128.999939 
z"/>
<path fill="#F77D88" opacity="1.000000" stroke="none" 
	d="
M107.926346,97.348312 
	C108.165810,96.996674 108.332603,96.996773 108.749596,96.997681 
	C112.818726,105.753944 113.423927,114.285484 106.783752,122.670639 
	C105.889442,122.997368 105.445183,122.997002 105.000916,122.996643 
	C103.845245,121.129097 102.689583,119.261551 101.265770,117.200859 
	C99.389709,113.236351 100.411049,109.978203 102.629204,106.726639 
	C104.582993,103.862595 106.128105,100.719757 107.926346,97.348312 
z"/>
<path fill="#F66C79" opacity="1.000000" stroke="none" 
	d="
M232.991211,129.999359 
	C236.874405,127.210159 240.893082,124.583237 244.553696,121.527405 
	C245.578369,120.672028 245.319855,118.430138 246.063721,117.046745 
	C246.857483,115.570587 248.141006,114.357780 249.605362,113.014847 
	C250.128937,116.886902 250.737915,120.847221 250.162262,124.627129 
	C249.914810,126.251953 247.409164,127.929642 245.560440,128.794205 
	C243.943985,129.550156 241.810318,129.200165 241.042877,129.255981 
	C241.476608,133.532898 241.495743,137.252686 242.369293,140.759689 
	C242.771194,142.373245 244.713760,144.583298 246.187592,144.777390 
	C252.099396,145.555939 258.101227,145.651138 264.533661,145.998581 
	C263.998688,149.734650 260.944763,150.074417 257.927795,149.947708 
	C250.142075,149.620682 242.365555,149.074860 233.833221,148.816010 
	C227.428009,149.242065 221.801392,149.263397 216.893585,145.810547 
	C214.222153,143.931091 211.630127,141.938766 209.002289,139.997360 
	C207.436798,138.313293 207.366089,137.206833 210.074509,137.022995 
	C212.166290,136.881012 214.250717,136.630997 216.674515,136.217361 
	C221.066376,135.339676 225.122147,134.673630 229.864380,133.829163 
	C231.364288,132.433594 232.177750,131.216476 232.991211,129.999359 
z"/>
<path fill="#F66C79" opacity="1.000000" stroke="none" 
	d="
M279.808594,83.262787 
	C280.505066,83.240906 281.002838,83.494934 281.750916,83.873291 
	C281.504639,89.174942 277.458313,88.090630 273.675964,87.732285 
	C275.653931,86.334427 277.631897,84.936562 279.808594,83.262787 
z"/>
<path fill="#F66C79" opacity="1.000000" stroke="none" 
	d="
M105.000732,123.406799 
	C105.445183,122.997002 105.889442,122.997368 106.666916,122.997620 
	C108.500427,124.247253 109.934967,125.588348 111.515717,126.726372 
	C114.196541,128.656387 115.626839,130.932343 113.894897,134.785309 
	C113.388565,135.515640 113.171669,135.756638 112.981377,136.021545 
	C107.151482,135.029343 102.915939,137.047409 100.275833,142.801712 
	C96.486946,142.528885 96.539719,140.351761 97.863113,137.994034 
	C99.229866,135.559082 101.187820,133.445190 102.460106,130.971237 
	C103.607132,128.740860 104.176453,126.213409 105.000732,123.406799 
z"/>
<path fill="#F67B86" opacity="1.000000" stroke="none" 
	d="
M93.692139,146.587311 
	C93.916771,151.138565 90.992920,151.777115 87.756104,152.326981 
	C87.632278,147.529480 89.589233,145.590347 93.692139,146.587311 
z"/>
<path fill="#F77D88" opacity="1.000000" stroke="none" 
	d="
M208.902969,140.266495 
	C211.630127,141.938766 214.222153,143.931091 216.893585,145.810547 
	C221.801392,149.263397 227.428009,149.242065 233.540771,149.020065 
	C236.379532,151.249054 241.142014,152.039581 239.640289,156.714828 
	C238.151459,161.350037 233.803940,161.336639 230.005127,160.914505 
	C223.351639,160.175156 217.013672,161.294830 210.453583,162.062561 
	C203.610275,162.863434 196.292206,159.557831 189.173615,158.086761 
	C187.079300,157.653976 184.957443,157.354446 182.425629,156.992233 
	C182.743149,153.624268 183.155212,150.131180 184.382828,146.953110 
	C184.882523,145.659439 187.164032,145.066315 188.615372,144.124435 
	C190.025055,143.209595 192.135834,142.561646 192.680145,141.267242 
	C195.072144,135.579071 198.896927,134.643707 204.180923,138.634766 
	C205.466812,139.606033 207.249420,139.919632 208.902969,140.266495 
z"/>
<path fill="#F56A77" opacity="1.000000" stroke="none" 
	d="
M279.106628,157.269501 
	C279.611633,157.466797 280.204620,157.951431 280.882996,158.724091 
	C280.377106,158.527039 279.785828,158.041931 279.106628,157.269501 
z"/>
<path fill="#F77D88" opacity="1.000000" stroke="none" 
	d="
M120.990311,145.015564 
	C122.938690,143.056122 124.595001,140.159912 126.927559,139.432663 
	C128.805023,138.847290 132.265594,140.234497 133.675278,141.892792 
	C136.716309,145.470154 138.434464,145.397202 140.509766,141.279861 
	C140.990845,140.325424 142.595535,139.255951 143.576797,139.349960 
	C148.496078,139.821289 153.386230,140.623184 158.269592,141.414001 
	C158.994263,141.531357 159.628326,142.208145 159.266754,141.984573 
	C158.731567,146.254028 158.292130,149.759583 157.931335,153.641190 
	C153.783188,156.328079 149.784943,159.373886 145.275604,160.776093 
	C138.647964,162.836990 131.656845,164.200775 124.392319,161.015320 
	C123.636879,159.931854 123.294365,158.847748 122.960876,156.983215 
	C122.310036,152.473709 121.650169,148.744644 120.990311,145.015564 
z"/>
<path fill="#F6707D" opacity="1.000000" stroke="none" 
	d="
M120.674622,144.983810 
	C121.650169,148.744644 122.310036,152.473709 122.951523,156.630859 
	C121.197678,155.392288 119.505600,153.677353 117.717155,152.069626 
	C114.574287,149.244339 109.903183,147.178192 113.682236,141.512497 
	C114.379433,140.467239 113.463829,138.346222 113.136993,136.371643 
	C113.171669,135.756638 113.388565,135.515640 113.823318,135.147858 
	C116.007500,135.970749 118.000412,136.944351 120.679367,138.253113 
	C120.263519,139.387772 119.514435,140.756790 119.326485,142.198944 
	C119.214630,143.057220 119.985123,144.030487 120.674622,144.983810 
z"/>
<path fill="#F67B86" opacity="1.000000" stroke="none" 
	d="
M232.658386,130.086380 
	C232.177750,131.216476 231.364288,132.433594 230.274628,133.821060 
	C230.774155,132.718735 231.549866,131.446060 232.658386,130.086380 
z"/>
</svg>